<mxfile host="65bd71144e">
    <diagram id="JUaFRalB-UFC6GCzcYPZ" name="第 1 页">
        <mxGraphModel dx="2975" dy="1753" grid="1" gridSize="10" guides="1" tooltips="1" connect="1" arrows="1" fold="1" page="1" pageScale="1" pageWidth="827" pageHeight="1169" math="0" shadow="0">
            <root>
                <mxCell id="0"/>
                <mxCell id="1" parent="0"/>
                <mxCell id="4" value="" style="edgeStyle=none;html=1;fontSize=24;" edge="1" parent="1" source="2" target="3">
                    <mxGeometry relative="1" as="geometry"/>
                </mxCell>
                <mxCell id="14" style="edgeStyle=none;html=1;exitX=1;exitY=0.5;exitDx=0;exitDy=0;entryX=0;entryY=0.5;entryDx=0;entryDy=0;fontSize=24;" edge="1" parent="1" source="2" target="13">
                    <mxGeometry relative="1" as="geometry"/>
                </mxCell>
                <mxCell id="27" value="" style="edgeStyle=none;html=1;fontSize=24;" edge="1" parent="1" source="2" target="26">
                    <mxGeometry relative="1" as="geometry"/>
                </mxCell>
                <mxCell id="36" value="" style="edgeStyle=none;html=1;fontSize=24;" edge="1" parent="1" source="2" target="35">
                    <mxGeometry relative="1" as="geometry">
                        <Array as="points">
                            <mxPoint x="-10" y="820"/>
                        </Array>
                    </mxGeometry>
                </mxCell>
                <mxCell id="2" value="hani&lt;br style=&quot;font-size: 24px;&quot;&gt;" style="rounded=0;whiteSpace=wrap;html=1;fontSize=24;" vertex="1" parent="1">
                    <mxGeometry x="-320" y="400" width="230" height="290" as="geometry"/>
                </mxCell>
                <mxCell id="8" value="" style="edgeStyle=none;html=1;fontSize=24;" edge="1" parent="1" source="3" target="7">
                    <mxGeometry relative="1" as="geometry"/>
                </mxCell>
                <mxCell id="3" value="login&lt;br&gt;" style="whiteSpace=wrap;html=1;fontSize=24;rounded=0;" vertex="1" parent="1">
                    <mxGeometry x="120" y="250" width="120" height="60" as="geometry"/>
                </mxCell>
                <mxCell id="10" value="" style="edgeStyle=none;html=1;fontSize=24;" edge="1" parent="1" source="7" target="9">
                    <mxGeometry relative="1" as="geometry"/>
                </mxCell>
                <mxCell id="12" value="" style="edgeStyle=none;html=1;fontSize=24;" edge="1" parent="1" source="7" target="11">
                    <mxGeometry relative="1" as="geometry"/>
                </mxCell>
                <mxCell id="7" value="new user" style="rhombus;whiteSpace=wrap;html=1;fontSize=24;rounded=0;" vertex="1" parent="1">
                    <mxGeometry x="274" y="140" width="140" height="100" as="geometry"/>
                </mxCell>
                <mxCell id="9" value="home(入睡计划页)" style="whiteSpace=wrap;html=1;fontSize=24;rounded=0;" vertex="1" parent="1">
                    <mxGeometry x="580" y="170" width="230" height="60" as="geometry"/>
                </mxCell>
                <mxCell id="11" value="user info：头像上传" style="whiteSpace=wrap;html=1;fontSize=24;rounded=0;" vertex="1" parent="1">
                    <mxGeometry x="560" y="50" width="240" height="60" as="geometry"/>
                </mxCell>
                <mxCell id="16" value="" style="edgeStyle=none;html=1;fontSize=24;" edge="1" parent="1" source="13" target="15">
                    <mxGeometry relative="1" as="geometry"/>
                </mxCell>
                <mxCell id="18" value="" style="edgeStyle=none;html=1;fontSize=24;" edge="1" parent="1" source="13" target="17">
                    <mxGeometry relative="1" as="geometry"/>
                </mxCell>
                <mxCell id="25" style="edgeStyle=none;html=1;exitX=1;exitY=0.5;exitDx=0;exitDy=0;entryX=0;entryY=0.5;entryDx=0;entryDy=0;fontSize=24;" edge="1" parent="1" source="13" target="24">
                    <mxGeometry relative="1" as="geometry"/>
                </mxCell>
                <mxCell id="13" value="home(入睡计划页)" style="whiteSpace=wrap;html=1;fontSize=24;rounded=0;" vertex="1" parent="1">
                    <mxGeometry x="210" y="370" width="220" height="60" as="geometry"/>
                </mxCell>
                <mxCell id="15" value="跳转社区按钮" style="whiteSpace=wrap;html=1;fontSize=24;rounded=0;" vertex="1" parent="1">
                    <mxGeometry x="550" y="490" width="240" height="60" as="geometry"/>
                </mxCell>
                <mxCell id="20" value="" style="edgeStyle=none;html=1;fontSize=24;" edge="1" parent="1" source="17" target="19">
                    <mxGeometry relative="1" as="geometry"/>
                </mxCell>
                <mxCell id="23" value="" style="edgeStyle=none;html=1;fontSize=24;" edge="1" parent="1" source="17" target="13">
                    <mxGeometry relative="1" as="geometry"/>
                </mxCell>
                <mxCell id="17" value="固定10个schedule list" style="whiteSpace=wrap;html=1;fontSize=24;rounded=0;" vertex="1" parent="1">
                    <mxGeometry x="490" y="280" width="286" height="60" as="geometry"/>
                </mxCell>
                <mxCell id="22" value="" style="edgeStyle=none;html=1;fontSize=24;" edge="1" parent="1" source="19" target="21">
                    <mxGeometry relative="1" as="geometry"/>
                </mxCell>
                <mxCell id="19" value="可下滑填写schedule，最长18字符" style="whiteSpace=wrap;html=1;fontSize=24;rounded=0;" vertex="1" parent="1">
                    <mxGeometry x="873" y="290" width="247" height="60" as="geometry"/>
                </mxCell>
                <mxCell id="21" value="完成状态如何判断？" style="whiteSpace=wrap;html=1;fontSize=24;rounded=0;" vertex="1" parent="1">
                    <mxGeometry x="1120" y="200" width="300" height="60" as="geometry"/>
                </mxCell>
                <mxCell id="24" value="手指按钮左右比例数据随时更改？" style="rounded=0;whiteSpace=wrap;html=1;fontSize=24;" vertex="1" parent="1">
                    <mxGeometry x="557" y="390" width="453" height="60" as="geometry"/>
                </mxCell>
                <mxCell id="30" value="" style="edgeStyle=none;html=1;fontSize=24;" edge="1" parent="1" source="26" target="29">
                    <mxGeometry relative="1" as="geometry"/>
                </mxCell>
                <mxCell id="26" value="社区" style="whiteSpace=wrap;html=1;fontSize=24;rounded=0;" vertex="1" parent="1">
                    <mxGeometry x="210" y="600" width="120" height="60" as="geometry"/>
                </mxCell>
                <mxCell id="32" value="" style="edgeStyle=none;html=1;fontSize=24;" edge="1" parent="1" source="29" target="31">
                    <mxGeometry relative="1" as="geometry"/>
                </mxCell>
                <mxCell id="29" value="顶部主播头像list（几个）" style="whiteSpace=wrap;html=1;fontSize=24;rounded=0;" vertex="1" parent="1">
                    <mxGeometry x="570" y="610" width="290" height="60" as="geometry"/>
                </mxCell>
                <mxCell id="31" value="主播详情页" style="rhombus;whiteSpace=wrap;html=1;fontSize=24;rounded=0;" vertex="1" parent="1">
                    <mxGeometry x="940" y="575" width="185" height="130" as="geometry"/>
                </mxCell>
                <mxCell id="38" value="" style="edgeStyle=none;html=1;fontSize=24;" edge="1" parent="1" source="35" target="37">
                    <mxGeometry relative="1" as="geometry"/>
                </mxCell>
                <mxCell id="40" value="" style="edgeStyle=none;html=1;fontSize=24;" edge="1" parent="1" source="35" target="39">
                    <mxGeometry relative="1" as="geometry"/>
                </mxCell>
                <mxCell id="41" value="" style="edgeStyle=none;html=1;fontSize=24;" edge="1" parent="1" source="35" target="39">
                    <mxGeometry relative="1" as="geometry"/>
                </mxCell>
                <mxCell id="43" value="" style="edgeStyle=none;html=1;fontSize=24;" edge="1" parent="1" source="35" target="42">
                    <mxGeometry relative="1" as="geometry"/>
                </mxCell>
                <mxCell id="45" value="" style="edgeStyle=none;html=1;fontSize=24;" edge="1" parent="1" source="35" target="44">
                    <mxGeometry relative="1" as="geometry"/>
                </mxCell>
                <mxCell id="47" value="" style="edgeStyle=none;html=1;fontSize=24;" edge="1" parent="1" source="35" target="46">
                    <mxGeometry relative="1" as="geometry"/>
                </mxCell>
                <mxCell id="35" value="个人中心" style="whiteSpace=wrap;html=1;fontSize=24;rounded=0;" vertex="1" parent="1">
                    <mxGeometry x="80" y="970" width="120" height="60" as="geometry"/>
                </mxCell>
                <mxCell id="37" value="个人入睡计划" style="whiteSpace=wrap;html=1;fontSize=24;rounded=0;" vertex="1" parent="1">
                    <mxGeometry x="430" y="740" width="260" height="60" as="geometry"/>
                </mxCell>
                <mxCell id="39" value="个人信息编辑" style="whiteSpace=wrap;html=1;fontSize=24;rounded=0;" vertex="1" parent="1">
                    <mxGeometry x="440" y="840" width="330" height="60" as="geometry"/>
                </mxCell>
                <mxCell id="42" value="关注页" style="whiteSpace=wrap;html=1;fontSize=24;rounded=0;" vertex="1" parent="1">
                    <mxGeometry x="440" y="940" width="120" height="60" as="geometry"/>
                </mxCell>
                <mxCell id="44" value="拉黑页" style="whiteSpace=wrap;html=1;fontSize=24;rounded=0;" vertex="1" parent="1">
                    <mxGeometry x="470" y="1109" width="120" height="60" as="geometry"/>
                </mxCell>
                <mxCell id="46" value="设置页（注销等）" style="whiteSpace=wrap;html=1;fontSize=24;rounded=0;" vertex="1" parent="1">
                    <mxGeometry x="310" y="1230" width="300" height="60" as="geometry"/>
                </mxCell>
            </root>
        </mxGraphModel>
    </diagram>
</mxfile>